<?xml version="1.0" encoding="utf-8"?>
<!-- Generator: Adobe Illustrator 25.2.3, SVG Export Plug-In . SVG Version: 6.00 Build 0)  -->
<svg version="1.1" id="Layer_1" xmlns="http://www.w3.org/2000/svg" xmlns:xlink="http://www.w3.org/1999/xlink" x="0px" y="0px"
	 viewBox="0 0 2732 2048" style="enable-background:new 0 0 2732 2048;" xml:space="preserve">
<style type="text/css">
	.st0{fill:url(#SVGID_1_);}
	.st1{opacity:0.68;fill:url(#SVGID_2_);enable-background:new    ;}
	.st2{opacity:0.82;fill:url(#SVGID_3_);enable-background:new    ;}
	.st3{opacity:0.92;fill:url(#SVGID_4_);enable-background:new    ;}
	.st4{opacity:0.79;fill:url(#SVGID_5_);enable-background:new    ;}
	.st5{opacity:0.79;fill:url(#SVGID_6_);enable-background:new    ;}
	.st6{opacity:0.79;fill:url(#SVGID_7_);enable-background:new    ;}
	.st7{opacity:0.79;fill:url(#SVGID_8_);enable-background:new    ;}
	.st8{fill:url(#SVGID_9_);}
	.st9{fill:url(#SVGID_10_);}
	.st10{fill:url(#SVGID_11_);}
	.st11{fill:#F0C4B2;}
	.st12{fill:#D98282;}
	.st13{fill:#FFADAD;}
	.st14{fill:#E67EC8;}
	.st15{fill:#7CE3E3;}
	.st16{opacity:0.5;fill:#5DAAAA;enable-background:new    ;}
	.st17{fill:#5DAAAA;}
	.st18{fill:#FFA0E3;}
	.st19{fill:#E286E8;}
</style>
<linearGradient id="SVGID_1_" gradientUnits="userSpaceOnUse" x1="1365.0284" y1="673.8898" x2="1365.0284" y2="-935.8956" gradientTransform="matrix(1 0 0 -1 0 613.8898)">
	<stop  offset="0" style="stop-color:#0088BC"/>
	<stop  offset="0.9949" style="stop-color:#D5EEF1"/>
</linearGradient>
<rect x="-32.94" y="-60" class="st0" width="2795.94" height="1609.79"/>
<linearGradient id="SVGID_2_" gradientUnits="userSpaceOnUse" x1="733.8381" y1="282.3864" x2="733.8381" y2="-254.6563" gradientTransform="matrix(1 0 0 -1 0 613.8898)">
	<stop  offset="0" style="stop-color:#FFFFFF"/>
	<stop  offset="0.9949" style="stop-color:#DBEFF9"/>
</linearGradient>
<path class="st1" d="M238.88,833.15c-58.95-13.77-96.73-71.66-85.43-129.91c11.3-59.66,70.6-100.26,131.32-88.96
	c-3.53-38.48,22.59-73.43,60.01-81.2c37.07-7.77,74.49,13.41,86.84,49.42c-2.12-10.59-11.65-64.25,22.59-116.5
	c33.18-51.19,84.37-64.6,95.32-67.07c6.71-36.36,36.01-63.9,70.6-67.07c39.54-3.88,78.02,24.71,86.14,67.07
	c57.54-20.83,121.09-3.18,157.45,42.36c30.71,38.83,37.07,92.14,17.65,139.44c23.65-38.83,68.84-59.31,112.97-51.19
	c45.54,8.47,81.55,45.54,88.26,91.79c2.12-1.06,49.42-26.83,95.32,0c32.48,19.06,50.84,56.84,45.89,95.32
	c17.3-23.65,46.6-31.42,67.07-21.18c20.83,10.59,29.65,43.42,23.3,66.37c-25.42,88.96-295.13,99.55-295.13,99.55
	s-170.86,8.12-349.49,7.06c-168.75-1.06-253.12-9.88-289.48-14.12C321.85,847.62,273.13,839.5,238.88,833.15z"/>
<linearGradient id="SVGID_3_" gradientUnits="userSpaceOnUse" x1="2309.9766" y1="568.4845" x2="2309.9766" y2="299.9589" gradientTransform="matrix(1 0 0 -1 0 613.8898)">
	<stop  offset="0" style="stop-color:#FFFFFF"/>
	<stop  offset="0.9949" style="stop-color:#DBEFF9"/>
</linearGradient>
<path class="st2" d="M1987.06,296.2c-38.48-6.71-62.84-36.01-55.78-64.96c7.41-30.01,45.89-50.13,85.78-44.48
	c-2.12-19.06,14.83-36.71,39.19-40.6c24.01-3.88,48.72,6.71,56.84,24.71c-1.41-5.3-7.41-32.13,14.47-58.25
	c21.53-25.42,55.07-32.13,62.13-33.54c4.24-18.36,23.65-31.77,45.89-33.54c25.77-1.77,50.84,12.36,56.13,33.54
	c37.42-10.24,79.08-1.77,102.73,21.18c20.12,19.42,24.36,46.25,11.65,69.55c15.18-19.42,44.83-29.65,73.78-25.42
	c29.65,4.24,52.95,22.59,57.54,45.89c1.41-0.71,32.12-13.41,62.13,0c21.18,9.53,33.18,28.24,30.01,47.66
	c11.3-12,30.36-15.89,43.77-10.59c13.77,5.3,19.42,21.53,15.18,33.18c-16.59,44.48-192.4,49.78-192.4,49.78
	s-111.56,4.24-228.05,3.53c-110.14-0.71-165.21-4.94-188.87-7.06C2041.07,303.61,2009.3,299.38,1987.06,296.2L1987.06,296.2z"/>
<linearGradient id="SVGID_4_" gradientUnits="userSpaceOnUse" x1="-2570.6165" y1="476.7134" x2="-2570.6165" y2="243.1768" gradientTransform="matrix(-1.1403 0 0 -1 -1001.151 613.8898)">
	<stop  offset="0" style="stop-color:#FFFFFF"/>
	<stop  offset="0.9949" style="stop-color:#DBEFF9"/>
</linearGradient>
<path class="st3" d="M2150.86,355.16c26.12-6,43.07-31.07,38.13-56.48c-4.94-26.12-31.42-43.42-58.6-38.48
	c1.41-16.59-10.24-31.77-26.83-35.3c-16.59-3.18-33.18,6-38.83,21.53c1.06-4.59,5.3-27.89-9.88-50.48
	c-14.83-22.24-37.77-27.89-42.36-29.3c-2.82-15.89-16.24-27.54-31.42-29.3c-17.65-1.77-34.95,10.94-38.48,29.3
	c-25.77-9.18-54.01-1.41-70.25,18.36c-13.77,16.95-16.59,40.24-7.77,60.72c-10.59-16.95-30.71-25.77-50.48-22.24
	c-20.48,3.53-36.36,19.77-39.54,39.89c-1.06-0.35-21.89-11.65-42.36,0c-14.47,8.12-22.59,24.71-20.48,41.3
	c-7.77-10.24-20.83-13.77-30.01-9.18c-9.18,4.59-13.41,18.71-10.24,28.95c11.3,38.48,131.68,43.07,131.68,43.07
	s76.25,3.53,156.04,3.18c75.19-0.35,112.97-4.24,129.21-6C2113.79,361.51,2135.32,357.98,2150.86,355.16z"/>
<linearGradient id="SVGID_5_" gradientUnits="userSpaceOnUse" x1="844.1953" y1="-482.4023" x2="844.1953" y2="-680.2008" gradientTransform="matrix(1 0 0 -1 0 613.8898)">
	<stop  offset="0" style="stop-color:#FFFFFF"/>
	<stop  offset="0.9949" style="stop-color:#DBEFF9"/>
</linearGradient>
<path class="st4" d="M614.85,1281.13c-27.18-4.94-44.83-26.48-39.54-48.01c5.3-21.89,32.83-37.07,61.07-32.83
	c-1.77-14.12,10.59-27.18,27.89-30.01c17.3-2.82,34.6,4.94,40.24,18.36c-1.06-3.88-5.3-23.65,10.24-43.07
	c15.53-18.71,39.19-23.65,44.13-24.71c3.18-13.41,16.59-23.65,32.83-24.71c18.36-1.41,36.01,9.18,39.89,24.71
	c26.83-7.77,56.13-1.06,73.08,15.53c14.12,14.12,17.3,33.89,8.12,51.19c10.94-14.47,31.77-21.89,52.25-18.71
	c21.18,3.18,37.77,16.59,40.95,33.89c1.06-0.35,22.95-9.88,44.13,0c15.18,7.06,23.65,20.83,21.18,34.95
	c8.12-8.83,21.53-11.65,31.07-7.77c9.53,3.88,13.77,15.89,10.59,24.36c-11.65,32.83-136.62,36.71-136.62,36.71
	s-79.43,3.18-162.04,2.47c-78.37-0.35-117.56-3.53-134.15-5.3C653.33,1286.43,630.74,1283.25,614.85,1281.13L614.85,1281.13z"/>
<linearGradient id="SVGID_6_" gradientUnits="userSpaceOnUse" x1="238.7607" y1="-384.8262" x2="238.7607" y2="-582.6252" gradientTransform="matrix(1 0 0 -1 0 613.8898)">
	<stop  offset="0" style="stop-color:#FFFFFF"/>
	<stop  offset="0.9949" style="stop-color:#DBEFF9"/>
</linearGradient>
<path class="st5" d="M9.42,1183.35c-27.18-4.94-44.83-26.48-39.54-48.01c5.3-21.89,32.83-37.07,61.07-32.83
	c-1.77-14.12,10.59-27.18,27.89-30.01c17.3-2.82,34.6,4.94,40.24,18.36c-1.06-3.88-5.3-23.65,10.24-43.07
	c15.53-18.71,39.19-23.65,44.13-24.71c3.18-13.41,16.59-23.65,32.83-24.71c18.36-1.41,36.01,9.18,39.89,24.71
	c26.83-7.77,56.13-1.06,73.08,15.53c14.12,14.12,17.3,33.89,8.12,51.19c10.94-14.47,31.77-21.89,52.25-18.71
	c21.18,3.18,37.77,16.59,40.95,33.89c1.06-0.35,22.95-9.88,44.13,0c15.18,7.06,23.65,20.83,21.18,34.95
	c8.12-8.83,21.53-11.65,31.07-7.77s13.77,15.89,10.59,24.36c-11.65,32.83-136.62,36.71-136.62,36.71s-79.43,3.18-162.04,2.47
	c-78.37-0.35-117.56-3.53-134.15-5.3C47.9,1188.64,25.31,1185.82,9.42,1183.35L9.42,1183.35z"/>
<linearGradient id="SVGID_7_" gradientUnits="userSpaceOnUse" x1="2079.7761" y1="-346.135" x2="2079.7761" y2="-543.934" gradientTransform="matrix(1 0 0 -1 0 613.8898)">
	<stop  offset="0" style="stop-color:#FFFFFF"/>
	<stop  offset="0.9949" style="stop-color:#DBEFF9"/>
</linearGradient>
<path class="st6" d="M1850.44,1144.87c-27.18-4.94-44.83-26.48-39.54-48.01c5.3-21.89,32.83-37.07,61.07-32.83
	c-1.77-14.12,10.59-27.18,27.89-30.01c17.3-2.82,34.6,4.94,40.24,18.36c-1.06-3.88-5.3-23.65,10.24-43.07
	c15.53-18.71,39.19-23.65,44.13-24.71c3.18-13.41,16.59-23.65,32.83-24.71c18.36-1.41,36.01,9.18,39.89,24.71
	c26.83-7.77,56.13-1.06,73.08,15.53c14.12,14.12,17.3,33.89,8.12,51.19c10.94-14.47,31.77-21.89,52.25-18.71
	c21.18,3.18,37.77,16.59,40.95,33.89c1.06-0.35,22.95-9.88,44.13,0c15.18,7.06,23.65,20.83,21.18,34.95
	c8.12-8.83,21.53-11.65,31.07-7.77c9.53,3.88,13.77,15.89,10.59,24.36c-11.65,32.83-136.62,36.71-136.62,36.71
	s-79.43,3.18-162.04,2.47c-78.37-0.35-117.56-3.53-134.15-5.3C1888.91,1150.16,1866.67,1146.99,1850.44,1144.87L1850.44,1144.87z"/>
<linearGradient id="SVGID_8_" gradientUnits="userSpaceOnUse" x1="1848.6158" y1="-361.3784" x2="1848.6158" y2="-629.8879" gradientTransform="matrix(1 0 0 -1 0 613.8898)">
	<stop  offset="0" style="stop-color:#FFFFFF"/>
	<stop  offset="0.9949" style="stop-color:#DBEFF9"/>
</linearGradient>
<path class="st7" d="M1509.77,1226.06c-40.24-6.71-66.02-36.01-58.6-64.96c7.77-30.01,48.36-50.13,90.02-44.48
	c-2.47-19.06,15.53-36.71,40.95-40.6s50.84,6.71,59.66,24.71c-1.41-5.3-7.77-32.13,15.53-58.25c22.59-25.42,57.9-32.13,65.31-33.54
	c4.59-18.36,24.71-31.77,48.36-33.54c27.18-1.77,53.31,12.36,58.95,33.54c39.54-10.24,82.96-1.77,107.67,21.18
	c20.83,19.42,25.42,46.25,12,69.9c16.24-19.42,46.95-29.65,77.31-25.42c31.42,4.24,55.78,22.59,60.37,45.89
	c1.41-0.71,33.89-13.41,65.31,0c22.24,9.53,34.6,28.24,31.42,47.66c12-12,32.12-15.89,45.89-10.59
	c14.47,5.3,20.48,21.53,15.89,33.18c-17.3,44.48-201.58,49.78-201.93,49.78c0,0-116.85,4.24-239,3.53
	c-115.44-0.71-173.33-4.94-198.05-7.06C1566.6,1233.48,1533.42,1229.24,1509.77,1226.06L1509.77,1226.06z"/>
<linearGradient id="SVGID_9_" gradientUnits="userSpaceOnUse" x1="1365.0284" y1="-712.8934" x2="1365.0284" y2="-1286.8007" gradientTransform="matrix(1 0 0 -1 0 613.8898)">
	<stop  offset="0" style="stop-color:#88C03F"/>
	<stop  offset="0.9667" style="stop-color:#5C892A"/>
</linearGradient>
<path class="st8" d="M-31.18,1415.28c67.78-30.36,152.86-60.01,252.41-76.25c284.18-46.6,478.35,49.42,794.3,126.03
	c149.33,36.01,353.73,55.78,762.53,95.32c434.22,42.01,984.93,72.72,984.93,72.72v135.56c0,0-2751.11,120.73-2795.94,132.03
	L-31.18,1415.28L-31.18,1415.28z"/>
<linearGradient id="SVGID_10_" gradientUnits="userSpaceOnUse" x1="1365.911" y1="-900.0846" x2="1365.911" y2="-1368.8019" gradientTransform="matrix(1 0 0 -1 0 613.8898)">
	<stop  offset="0" style="stop-color:#88C03F"/>
	<stop  offset="0.9974" style="stop-color:#48701F"/>
</linearGradient>
<path class="st9" d="M-31.18,1538.84c246.76,73.78,674.98,189.22,1179.1,85.08c53.31-10.94,34.95-9.18,130.62-31.77
	C1742.76,1482,2763,1520.48,2763,1520.48s0,340.67,0,338.2S866.21,2225.47-26.94,1701.23c-5.65-117.2-0.71-11.3-3.53-140.86
	C-30.82,1553.67-30.82,1546.61-31.18,1538.84L-31.18,1538.84z"/>
<linearGradient id="SVGID_11_" gradientUnits="userSpaceOnUse" x1="1366.7936" y1="-1093.6969" x2="1366.7936" y2="-1486.9646" gradientTransform="matrix(1 0 0 -1 0 613.8898)">
	<stop  offset="0" style="stop-color:#8DC63F"/>
	<stop  offset="0.9693" style="stop-color:#61823E"/>
</linearGradient>
<path class="st10" d="M2763,1707.59c-411.62,49.42-875.85,82.96-1384.56,83.31c-517.88,0.35-990.23-33.18-1407.86-83.31v393.27H2763
	V1707.59L2763,1707.59z"/>
<g id="Bicycles">
	<g>
		
			<rect x="1045.11" y="1613.42" transform="matrix(0.8089 -0.5879 0.5879 0.8089 -725.0398 1002.5803)" class="st11" width="269.53" height="6.57"/>
		
			<rect x="1045.45" y="1614.13" transform="matrix(0.5879 -0.8089 0.8089 0.5879 -822.0109 1621.2126)" class="st11" width="269.53" height="6.57"/>
		
			<rect x="1044.21" y="1613.16" transform="matrix(0.3089 -0.9511 0.9511 0.3089 -721.9774 2239.2961)" class="st11" width="271.33" height="6.57"/>
		
			<rect x="1045.24" y="1614.11" transform="matrix(0.9511 -0.3089 0.3089 0.9511 -441.8736 443.7851)" class="st11" width="270.73" height="6.57"/>
		
			<rect x="1177.55" y="1480.61" transform="matrix(0.309 -0.9511 0.9511 0.309 -721.2181 2239.9148)" class="st11" width="6.57" height="271.34"/>
		<path class="st11" d="M1180.29,1764.74c-81.87,0-148.83-66.93-148.83-148.83c0-81.9,66.93-148.83,148.83-148.83
			c81.87,0,148.83,66.93,148.83,148.83C1329.13,1697.81,1262.16,1764.74,1180.29,1764.74z M1180.29,1482.64
			c-73.5,0-133.87,59.77-133.87,133.87s59.77,133.87,133.87,133.87c73.5,0,133.87-59.77,133.87-133.87
			S1253.79,1482.64,1180.29,1482.64z"/>
		<g>
			<path class="st11" d="M1036.82,1616.51c0-81.27,65.13-147.03,145.83-148.83c-1.2,0-1.8,0-3,0
				c-81.87,0-148.83,66.93-148.83,148.83c0,81.87,66.93,148.83,148.83,148.83c1.2,0,1.8,0,3,0
				C1102.59,1763.54,1036.82,1697.21,1036.82,1616.51z"/>
			<path class="st11" d="M1183.26,1749.81c1.2,0,1.8,0,3,0c73.5,0,136.87-64.53,136.87-133.87c0-68.13-58.57-133.87-136.87-133.87
				c-1.2,0-1.8,0-3,0c72.33,1.8,130.9,60.97,130.9,133.27C1314.16,1687.64,1255.59,1748.61,1183.26,1749.81z"/>
		</g>
		<path class="st12" d="M1180.29,1781.47c-91.43,0-165.57-74.1-165.57-165.57c0-91.43,74.1-165.57,165.57-165.57
			c91.43,0,165.57,74.1,165.57,165.57C1345.82,1707.38,1271.12,1781.47,1180.29,1781.47z M1180.29,1467.71
			c-81.87,0-148.83,66.93-148.83,148.83c0,81.87,66.93,148.83,148.83,148.83c81.87,0,148.83-66.93,148.83-148.83
			C1329.09,1534.04,1262.16,1467.71,1180.29,1467.71z"/>
		<g>
			<path class="st13" d="M1021.29,1616.51c0-90.23,72.33-163.77,162.57-165.57c-1.2,0-1.8,0-3,0c-91.43,0-165.57,74.1-165.57,165.57
				c0,91.43,74.1,165.57,165.57,165.57c1.2,0,2.4,0,3,0C1093.62,1779.67,1021.29,1706.17,1021.29,1616.51z"/>
			<path class="st13" d="M1183.26,1764.74c1.2,0,1.8,0,3,0c81.87,0,148.83-66.93,148.83-148.83c0-81.87-66.93-148.83-148.83-148.83
				c-1.2,0-2.4,0-3,0c80.7,1.8,145.23,67.53,145.23,148.83C1328.49,1697.21,1263.96,1762.94,1183.26,1764.74z"/>
		</g>
		<rect x="1177.29" y="1482.64" class="st11" width="6.57" height="267.17"/>
		<rect x="1045.79" y="1614.14" class="st11" width="267.17" height="6.57"/>
		
			<rect x="1176.82" y="1482.75" transform="matrix(0.9511 -0.309 0.309 0.9511 -441.6823 443.7337)" class="st11" width="6.57" height="267.18"/>
		
			<rect x="1176.47" y="1482.51" transform="matrix(0.809 -0.5878 0.5878 0.809 -724.6143 1002.1299)" class="st11" width="6.57" height="267.17"/>
		
			<rect x="1176.25" y="1483.27" transform="matrix(0.5878 -0.809 0.809 0.5878 -821.8395 1620.7079)" class="st11" width="6.57" height="267.17"/>
		<path class="st14" d="M1345.82,1624.87c-4.77,0-8.37-3.6-8.37-8.37c0-86.67-70.53-157.2-157.2-157.2
			c-86.67,0-157.2,70.53-157.2,157.2c0,4.77-3.6,8.37-8.37,8.37s-8.37-3.6-8.37-8.37c0-95.63,77.7-173.93,173.93-173.93
			c95.63,0,173.93,77.7,173.93,173.93C1354.19,1620.71,1350.03,1624.87,1345.82,1624.87z"/>
		<g>
			<path class="st14" d="M1180.29,1442.61c-1.2,0-2.4,0-3,0c94.43,1.8,170.93,78.9,170.93,173.93c0,3.6-2.4,6.57-5.37,7.77
				c1.2,0.6,1.8,0.6,3,0.6c4.77,0,8.37-3.6,8.37-8.37C1354.19,1520.31,1275.89,1442.61,1180.29,1442.61z"/>
			<path class="st14" d="M1173.69,1459.34c-86.67,0-157.2,70.53-157.2,157.2c0,3.6-2.4,6.57-5.37,7.77c1.2,0.6,1.8,0.6,3,0.6
				c4.77,0,8.37-3.6,8.37-8.37c0-85.47,68.73-155.4,153.6-157.2C1176.09,1459.34,1174.89,1459.34,1173.69,1459.34z"/>
		</g>
	</g>
	<g>
		
			<rect x="1618.89" y="1613.05" transform="matrix(0.8089 -0.5879 0.5879 0.8089 -615.1811 1339.8451)" class="st11" width="269.53" height="6.57"/>
		
			<rect x="1619.67" y="1613.4" transform="matrix(0.5879 -0.8089 0.8089 0.5879 -584.7939 2085.4114)" class="st11" width="269.53" height="6.57"/>
		
			<rect x="1618.22" y="1612.92" transform="matrix(0.3089 -0.9511 0.9511 0.3089 -325.0513 2785.0696)" class="st11" width="271.34" height="6.57"/>
		
			<rect x="1619" y="1613.62" transform="matrix(0.9511 -0.3089 0.3089 0.9511 -413.6612 620.9968)" class="st11" width="270.73" height="6.57"/>
		
			<rect x="1751.77" y="1479.73" transform="matrix(0.309 -0.9511 0.9511 0.309 -323.5958 2785.4275)" class="st11" width="6.57" height="271.34"/>
		<path class="st11" d="M1754.02,1764.14c-81.87,0-148.83-66.93-148.83-148.83c0-81.87,66.93-148.83,148.83-148.83
			c81.87,0,148.83,66.93,148.83,148.83C1902.86,1697.81,1836.49,1764.14,1754.02,1764.14z M1754.02,1482.04
			c-73.5,0-133.87,59.77-133.87,133.87c0,73.5,59.77,133.87,133.87,133.87s133.87-59.77,133.87-133.87
			C1887.89,1541.81,1828.12,1482.04,1754.02,1482.04z"/>
		<g>
			<path class="st11" d="M1611.19,1615.94c0-81.27,65.13-147.03,145.83-148.83c-1.2,0-1.8,0-3,0
				c-81.87,0-148.83,66.93-148.83,148.83c0,81.87,66.93,148.83,148.83,148.83c1.2,0,1.8,0,3,0
				C1676.32,1762.94,1611.19,1696.61,1611.19,1615.94z"/>
			<path class="st11" d="M1757.03,1749.21c1.2,0,1.8,0,3,0c73.5,0,136.87-64.53,136.87-133.87c0-68.13-58.57-133.87-136.87-133.87
				c-1.2,0-1.8,0-3,0c72.33,1.8,130.9,60.97,130.9,133.27C1887.89,1688.24,1829.32,1748.01,1757.03,1749.21z"/>
		</g>
		<path class="st12" d="M1754.02,1780.87c-91.43,0-165.57-74.1-165.57-165.57c0-91.43,74.1-165.57,165.57-165.57
			c91.43,0,165.57,74.1,165.57,165.57C1919.59,1706.77,1845.46,1780.87,1754.02,1780.87z M1754.02,1467.11
			c-81.87,0-148.83,66.93-148.83,148.83c0,81.87,66.93,148.83,148.83,148.83c81.87,0,148.83-66.93,148.83-148.83
			C1902.86,1533.44,1836.49,1467.11,1754.02,1467.11z"/>
		<g>
			<path class="st13" d="M1595.06,1615.94c0-90.23,72.33-163.77,162.57-165.57c-1.2,0-1.8,0-3,0c-91.43,0-165.57,74.1-165.57,165.57
				c0,91.43,74.1,165.57,165.57,165.57c1.2,0,2.4,0,3,0C1667.36,1779.07,1595.06,1705.57,1595.06,1615.94z"/>
			<path class="st13" d="M1757.63,1764.14c1.2,0,1.8,0,3,0c81.87,0,148.83-66.93,148.83-148.83c0-81.87-66.93-148.83-148.83-148.83
				c-1.2,0-2.4,0-3,0c80.7,1.8,145.23,67.53,145.23,148.83S1837.69,1762.34,1757.63,1764.14z"/>
		</g>
		<rect x="1751.02" y="1482.04" class="st11" width="6.57" height="267.17"/>
		<rect x="1620.16" y="1613.54" class="st11" width="267.17" height="6.57"/>
		
			<rect x="1751.17" y="1482.08" transform="matrix(0.9511 -0.309 0.309 0.9511 -413.3699 621.1692)" class="st11" width="6.57" height="267.18"/>
		
			<rect x="1750.3" y="1482.11" transform="matrix(0.809 -0.5878 0.5878 0.809 -614.7839 1339.354)" class="st11" width="6.57" height="267.17"/>
		
			<rect x="1750.5" y="1482.54" transform="matrix(0.5878 -0.809 0.809 0.5878 -584.5441 2084.9807)" class="st11" width="6.57" height="267.17"/>
		<path class="st14" d="M1919.59,1624.31c-4.77,0-8.37-3.6-8.37-8.37c0-86.67-70.53-157.2-157.2-157.2s-157.2,70.53-157.2,157.2
			c0,4.77-3.6,8.37-8.37,8.37s-8.37-3.6-8.37-8.37c0-95.63,77.7-173.93,173.93-173.93c95.63,0,173.93,77.7,173.93,173.93
			C1927.96,1620.11,1924.36,1624.31,1919.59,1624.31z"/>
		<g>
			<path class="st14" d="M1754.02,1442.01c-1.2,0-2.4,0-3,0c94.43,1.8,170.93,78.9,170.93,173.93c0,3.6-2.4,6.57-5.37,7.77
				c1.2,0.6,1.8,0.6,3,0.6c4.77,0,8.37-3.6,8.37-8.37C1927.96,1519.71,1850.26,1442.01,1754.02,1442.01z"/>
			<path class="st14" d="M1748.06,1458.74c-86.67,0-157.2,70.53-157.2,157.2c0,3.6-2.4,6.57-5.37,7.77c1.2,0.6,1.8,0.6,3,0.6
				c4.77,0,8.37-3.6,8.37-8.37c0-85.47,68.73-155.4,153.6-157.2C1749.86,1458.74,1749.26,1458.74,1748.06,1458.74z"/>
		</g>
	</g>
	<path class="st15" d="M1480.29,1592.61c-3,0-5.97-1.2-7.77-3.6c-3.6-4.2-3.6-10.77,0.6-14.93l192.43-175.1
		c4.2-3.6,10.77-3.6,14.93,0.6c3.6,4.2,3.6,10.77-0.6,14.93l-192.43,175.1C1485.69,1591.41,1483.29,1592.61,1480.29,1592.61z"/>
	<path class="st15" d="M1471.32,1563.34l-297.63,17.93c-17.33,1.2-31.67,17.33-31.67,36.47l0,0c0,19.73,13.73,35.87,31.67,36.47
		l297.63,17.93c19.13,1.2,35.27-15.53,35.27-36.47v-35.27C1506.59,1578.87,1490.46,1562.14,1471.32,1563.34z"/>
	<path class="st16" d="M1473.12,1661.34c-0.6,0-0.6,0-1.2,0l-297.63-17.93c-11.97-0.6-21.5-11.97-21.5-26.3
		c0-13.73,9.57-25.7,21.5-26.3l297.63-17.93c0.6,0,0.6,0,1.2,0c12.57,0,22.7,11.97,22.7,26.3v35.27c0,7.17-2.4,13.73-7.17,19.13
		C1484.49,1658.94,1479.09,1661.34,1473.12,1661.34L1473.12,1661.34z"/>
	<path class="st17" d="M1396.02,1635.64C1396.02,1635.64,1395.42,1635.64,1396.02,1635.64l-143.43-8.37c-4.2,0-7.77-4.2-7.77-9.57
		c0-5.37,3.6-9.57,7.77-9.57l143.43-8.37c0,0,0,0,0.6,0c4.2,0,7.77,4.2,7.77,9.57v17.33c0,3-1.2,5.37-2.4,7.17
		C1399.62,1635.04,1397.82,1635.64,1396.02,1635.64L1396.02,1635.64z"/>
	<path class="st15" d="M1146.22,1621.91c0-19.73,13.73-35.87,31.67-36.47l297.63-17.93c8.37-0.6,15.53,2.4,21.5,7.17
		c-6.57-7.77-15.53-11.97-25.7-11.37l-297.63,17.93c-17.33,1.2-31.67,17.33-31.67,36.47c0,11.97,5.37,22.1,13.13,29.3
		C1149.79,1639.84,1146.22,1631.47,1146.22,1621.91z"/>
	<circle class="st18" cx="1179.09" cy="1617.71" r="26.3"/>
	<path class="st15" d="M1445.02,1627.87c-4.2,0-8.37-2.4-9.57-6.57l-131.5-326.93c-2.4-5.37,0.6-11.37,5.97-13.73
		c5.37-2.4,11.37,0.6,13.73,5.97l131.5,326.93c2.4,5.37-0.6,11.37-5.97,13.73C1447.42,1627.87,1446.22,1627.87,1445.02,1627.87z"/>
	<path class="st15" d="M1757.63,1627.27c-4.2,0-8.37-2.4-9.57-6.57l-131.5-326.93c-1.2-2.4-1.2-5.37,0-8.37
		c1.2-2.4,3.6-4.77,5.97-5.37c35.27-12.57,117.73-42.43,117.73-84.87c0-34.67-108.77-63.93-177.5-63.93
		c-5.97,0-10.77-4.77-10.77-10.77c0-5.97,4.77-10.77,10.77-10.77c36.47,0,84.27,7.77,121.33,20.33c50.2,16.73,77.1,38.83,77.1,65.13
		c0,53.2-76.5,84.27-121.93,101l127.3,316.77c2.4,5.37-0.6,11.37-5.97,13.73C1759.99,1627.27,1758.83,1627.27,1757.63,1627.27z"/>
	<path class="st14" d="M1626.12,1139.01c-1.2,0-1.8,0-3-0.6c-30.47-8.37-59.77-8.37-87.27-6.57c-5.97,0.6-10.77-4.2-10.77-10.17
		c-0.6-5.97,4.2-10.77,10.17-10.77c29.3-1.8,60.37-1.8,93.83,7.17c5.37,1.8,8.97,7.17,7.17,13.13
		C1635.09,1136.01,1630.93,1139.01,1626.12,1139.01z"/>
	<circle class="st19" cx="1445.02" cy="1617.71" r="35.87"/>
	<circle class="st18" cx="1445.02" cy="1617.71" r="26.3"/>
	<path class="st12" d="M1505.99,1700.21c-1.8,0-3-0.6-4.2-1.8l-60.97-77.1c-1.8-2.4-1.2-5.37,0.6-7.17c2.4-1.8,5.37-1.2,7.17,0.6
		l60.97,77.1c1.8,2.4,1.2,5.37-0.6,7.17C1508.39,1699.61,1507.19,1700.21,1505.99,1700.21z"/>
	<path class="st15" d="M1537.69,1734.28h-62.77c-11.37,0-20.93-9.57-20.93-20.93l0,0c0-11.37,9.57-20.93,20.93-20.93h62.77
		c11.37,0,20.93,9.57,20.93,20.93l0,0C1558.59,1725.31,1549.02,1734.28,1537.69,1734.28z"/>
	<path class="st15" d="M1553.83,1700.81c1.8,3,3,6.57,3,10.17l0,0c0,11.37-9.57,20.93-20.93,20.93h-62.77
		c-6.57,0-12.57-3-16.73-8.37c3.6,6.57,10.17,10.77,17.93,10.77h62.77c11.37,0,20.93-9.57,20.93-20.93l0,0
		C1558.59,1708.58,1556.79,1704.37,1553.83,1700.81z"/>
	<path class="st15" d="M1179.09,1627.87c-2.4,0-4.77-1.2-7.17-3c-4.2-3.6-4.77-10.77-0.6-14.93l184.07-203.2
		c3.6-4.2,10.77-4.77,14.93-0.6c4.2,4.2,4.77,10.77,0.6,14.93l-184.07,203.2C1185.06,1626.67,1182.06,1627.87,1179.09,1627.87z"/>
	<path class="st19" d="M1353.59,1308.14h-79.5c-12.57,0-23.3-10.17-23.3-23.3l0,0c0-12.57,10.17-23.3,23.3-23.3h79.5
		c12.57,0,23.3,10.17,23.3,23.3l0,0C1376.33,1297.97,1366.16,1308.14,1353.59,1308.14z"/>
	<path class="st19" d="M1368.52,1268.07c3.6,4.2,5.37,8.97,5.37,14.93l0,0c0,12.57-10.17,23.3-23.3,23.3h-79.47
		c-5.97,0-10.77-2.4-14.93-5.37c4.2,4.77,10.77,7.77,17.33,7.77h79.5c12.57,0,23.3-10.17,23.3-23.3l0,0
		C1376.33,1278.24,1373.32,1272.27,1368.52,1268.07z"/>
	<path class="st15" d="M1390.66,1493.41c-5.97,0-10.77-4.77-10.77-10.77c0-5.97,4.77-10.77,10.77-10.77
		c49.6,0,98-11.97,138.67-34.07c44.23-23.9,80.1-59.77,106.97-105.8c3-4.77,9.57-6.57,14.33-3.6c4.77,3,6.57,9.57,3.6,14.33
		c-28.7,49.6-67.53,87.87-114.77,114.17C1495.26,1480.24,1443.86,1493.41,1390.66,1493.41z"/>
</g>
</svg>
